<?xml version="1.0" encoding="UTF-8" standalone="no"?>
<!-- Created with Inkscape (http://www.inkscape.org/) -->

<svg
   version="1.1"
   id="svg1"
   width="399.99997"
   height="400"
   viewBox="0 0 399.99997 400"
   xmlns:xlink="http://www.w3.org/1999/xlink"
   xmlns="http://www.w3.org/2000/svg"
   xmlns:svg="http://www.w3.org/2000/svg">
  <defs
     id="defs1">
    <linearGradient
       id="linearGradient115">
      <stop
         style="stop-color:#000000;stop-opacity:1"
         offset="0"
         id="stop115" />
      <stop
         style="stop-color:#4d4d4d;stop-opacity:1;"
         offset="1"
         id="stop116" />
    </linearGradient>
    <linearGradient
       xlink:href="#linearGradient115"
       id="linearGradient114"
       x1="534.63849"
       y1="761.95679"
       x2="870.10736"
       y2="492.9234"
       gradientUnits="userSpaceOnUse" />
    <linearGradient
       xlink:href="#linearGradient115"
       id="linearGradient5"
       gradientUnits="userSpaceOnUse"
       x1="534.63849"
       y1="761.95679"
       x2="870.10736"
       y2="492.9234"
       gradientTransform="translate(81.413317,121.53461)" />
    <linearGradient
       xlink:href="#linearGradient115"
       id="linearGradient2"
       gradientUnits="userSpaceOnUse"
       x1="534.63849"
       y1="761.95679"
       x2="870.10736"
       y2="492.9234" />
    <linearGradient
       xlink:href="#linearGradient115"
       id="linearGradient3"
       gradientUnits="userSpaceOnUse"
       x1="534.63849"
       y1="761.95679"
       x2="870.10736"
       y2="492.9234" />
  </defs>
  <g
     id="g1"
     transform="translate(-298.89493,-559.29468)">
    <g
       id="g116">
      <g
         id="g111"
         transform="translate(49.73913,474.43478)"
         style="fill:url(#linearGradient114);fill-opacity:1">
        <path
           id="path49"
           d="m 841.38468,639.71539 h -52.44 l -0.51333,3.76666 c -8.38134,61.464 -61.536,107.81467 -123.64533,107.81467 -68.832,0 -124.83067,-55.99867 -124.83067,-124.83067 0,-68.832 55.99867,-124.83199 124.83067,-124.83199 57.58933,0 107.42266,39.01066 121.18666,94.87066 l 0.90533,3.676 3.76667,-0.38667 c 0.67067,-0.068 1.356,-0.10266 2.03733,-0.10266 h 48.70267 c 11.036,0 20.01333,8.97733 20.01333,20.012 0,11.03466 -8.97733,20.012 -20.01333,20.012 z m 0,-48.73467 h -47.85067 c -15.89066,-57.916 -68.32933,-98.05733 -128.74799,-98.05733 -73.63467,0 -133.54,59.90666 -133.54,133.54266 0,73.63333 59.90533,133.54 133.54,133.54 65.16933,0 121.12533,-47.70267 131.70533,-111.58133 h 44.89333 c 15.83733,0 28.72266,-12.884 28.72266,-28.72133 0,-15.83867 -12.88533,-28.72267 -28.72266,-28.72267"
           style="fill:url(#linearGradient2);fill-opacity:1;fill-rule:nonzero;stroke:none;stroke-width:0.133333" />
        <path
           id="path50"
           d="m 741.00468,663.21272 c -3.03067,12.87333 -11.98667,21.05733 -23.188,26.75466 -6.79333,3.452 -14.16533,5.808 -21.37067,8.4 -7.58133,2.72534 -15.27466,5.14667 -24.91599,8.36667 14.33733,-15.472 37.37999,-12.792 49.79333,-29.11467 -17.13867,7.12134 -33.58134,13.95467 -49.83733,20.70934 1.264,-5.216 5.78533,-9.58134 11.74266,-12.54934 7.57733,-3.77733 15.412,-7.03733 23.02267,-10.752 15.44666,-7.54 26.236,-18.68399 27.488,-39.11999 8.48,9.15733 9.46933,17.94933 7.26533,27.30533 z m -51.49467,-5.372 c -11.58266,3.30133 -10.68,4.77733 -17.37333,14.176 -0.16533,-0.0893 -0.33466,-0.15867 -0.50933,-0.21867 2.18267,-4.368 4.31866,-8.77333 7.43733,-12.31866 4.63067,-5.26 11.23467,-8.72667 16.56667,-13.44 8.32933,-7.36134 16.312,-15.116 24.068,-22.35334 4.276,8.53334 1.48266,25.34534 -8.72667,34.404 -7.57467,6.72 -16.90533,11.48533 -25.548,16.972 -4.824,3.06267 -9.748,5.91067 -14.51866,8.73333 0.24933,-2.04933 0.792,-4.00933 2.184,-5.74533 5.03199,-5.10267 7.91999,-10.81067 13.32799,-13.05867 5.95334,-2.47333 12.84,-9.00666 17.31734,-13.60533 -0.58534,-0.53466 -7.73067,4.25067 -14.22534,6.45467 z m -10.83333,-27.28533 c 9.13867,-8.892 20.58933,-15.89734 23.496,-30.00134 4.02933,25.704 -8.91467,42.696 -29.08133,55.88267 5.92533,-8.63733 11.85066,-17.276 17.776,-25.91333 -11.97467,4.676 -18.588,13.47466 -21.92667,25.088 -0.005,-9.64 2.74134,-18.25067 9.736,-25.056 z m -15.57733,85.80933 c -6.99067,-4.44667 -13.54933,-9.75867 -20.96,-13.30267 -8.76667,-4.19333 -18.536,-6.26667 -27.35867,-10.36133 -17.16933,-7.964 -27.252,-28.66667 -22.40133,-46.92 0.17467,-0.65733 0.91467,-3.27067 2.12,-4.66933 4.20933,22.57199 19.9,31.56266 39.70933,36.18133 10.492,2.44666 20.028,7.10133 26.816,15.91333 2,2.596 3.252,5.76667 3.32934,9.86533 -1.608,-1.712 -2.944,-3.86533 -4.872,-5.05466 -6.86,-4.23734 -13.06,-10.80267 -20.97467,-12.01334 -9.88267,-1.51333 -22.204,-6.444 -30.932,-12.91066 3.38933,5.79866 3.616,6.85733 10.78133,13.75866 5.82934,5.61467 12.48,5.03334 20.308,7.37067 11.46534,3.42267 22.17734,7.51467 26.84267,19.98667 0.336,0.89866 1.54933,1.46933 1.62267,3.79733 -1.35067,-0.536 -2.82667,-0.87333 -4.03067,-1.64133 z m -54.34667,-90.90133 c 2.57334,3.85466 4.51467,6.64 6.33067,9.504 6.78267,10.692 16.70133,16.324 28.86933,19.188 12.69467,2.988 19.62934,11.13466 20.80134,24.52399 -4.04267,-10.22933 -11.62134,-12.988 -19.62267,-15.32666 -7.516,-2.196 -14.92667,-4.75733 -22.89867,-7.324 4.48134,8.48133 12.02667,12.12533 20.31867,14.97866 4.95867,1.70534 10.40133,3.096 14.396,6.208 3.99067,3.10934 6.44933,8.188 8.53067,13.38667 -6.83334,-10.36133 -17.56134,-12.63867 -28.22934,-15.41067 -23.75066,-6.172 -36.07733,-27.14933 -28.496,-49.72799 z m 41.19734,6.736 c 7.60666,5.40933 11.46266,13.14666 12.868,22.26 -4.85467,-10.48934 -12.392,-17.83734 -24.396,-20.50534 6.86533,7.296 13.72933,14.59334 20.59333,21.892 -20.99067,-9.51333 -35.71067,-23.68 -35.664,-48.56533 4.81067,12.90667 16.66,17.85333 26.59867,24.91867 z m -6.32934,-46.41067 c 7.86,13.30133 15.588,26.38133 22.23067,37.62533 6.304,-12.51333 13.53733,-26.87066 20.81466,-41.316 6.61867,9.876 5.62667,28.848 -2.204,36.812 -5.83333,5.93467 -12.15599,11.388 -17.88799,16.71067 -6.67334,-5.83467 -13.66934,-11.72133 -20.4,-17.89733 -8.628,-7.91467 -9.744,-21.34934 -2.55334,-31.93467 z m 8.58134,-18.67733 c 4.984,7.75066 9.77333,15.196 14.23733,22.13866 4.24533,-7.35466 8.892,-15.40133 14.25733,-24.696 8.356,19.88134 -11.86133,28.12 -14.27333,42.72667 -13.62933,-13.25867 -20.124,-30.864 -14.22133,-40.16933 z m 4.98266,-25.64934 c 3.21867,0.89867 5.56,4.932 8.264,7.564 0.008,0 0.0213,0.003 0.0293,0.003 0.008,0 0.0213,-0.003 0.0293,-0.003 2.70267,-2.632 5.04533,-6.66533 8.26267,-7.564 3.56133,-0.996 8.08533,7.91067 5.76799,12.78667 -3.48266,7.33067 -8.02399,14.228 -12.92266,22.384 -0.31333,0.724 -0.62533,1.44667 -0.944,2.20533 -0.0653,-0.112 -0.128,-0.20933 -0.19333,-0.32 -0.0653,0.11067 -0.128,0.208 -0.19334,0.32 -0.31866,-0.75866 -0.632,-1.48133 -0.94533,-2.20533 -4.89733,-8.156 -9.43867,-15.05333 -12.92133,-22.384 -2.31867,-4.876 2.20533,-13.78267 5.76666,-12.78667 z m 9.40267,-20.85333 c -58.464,0 -105.85733,47.39333 -105.85733,105.85733 0,58.46133 47.39333,105.856 105.85733,105.856 58.46266,0 105.856,-47.39467 105.856,-105.856 0,-58.464 -47.39334,-105.85733 -105.856,-105.85733"
           style="fill:url(#linearGradient3);fill-opacity:1;fill-rule:nonzero;stroke:none;stroke-width:0.133333" />
      </g>
      <circle
         style="fill:none;stroke-width:18.8976"
         id="path112"
         cx="738.43195"
         cy="1094.1382"
         r="172.70517" />
      <path
         style="font-size:66.6667px;line-height:3.7;font-family:Cantarell;-inkscape-font-specification:'Cantarell, Normal';letter-spacing:2px;text-orientation:sideways;stroke-width:4.49076"
         d="m 565.69465,1221.7705 17.20835,19.8447 3.72717,-3.2321 -13.58324,-15.6641 31.22766,-27.0792 -3.62511,-4.1805 z m 39.58545,37.9795 2.93878,2.3024 12.86915,-16.4257 c 4.72828,-6.035 3.79115,-12.1894 -2.82111,-17.37 -3.30613,-2.5902 -7.57361,-4.494 -11.49483,-5.1101 l -1.37625,3.9185 c 3.52846,0.9013 6.60464,2.3798 9.07112,4.3122 4.51312,3.536 5.34201,7.2342 2.42281,10.9602 l -10.56668,13.4869 z m -9.38494,-6.506 c 6.035,4.7283 13.56092,4.5269 18.69498,-0.5127 l -0.94626,-1.927 c -3.82972,3.2667 -9.30794,3.1245 -13.66363,-0.2881 -3.35861,-2.6314 -4.247,-6.0376 -2.27346,-8.5565 2.50805,-3.2012 7.26189,-1.594 16.23567,5.4368 l 2.26135,-2.8863 c -11.8076,-9.251 -18.74819,-10.8777 -23.06531,-5.3675 -3.53594,4.5132 -2.43868,10.0309 2.75666,14.1013 z m 56.88498,31.634 c 4.18187,1.5694 8.90236,2.2728 13.70111,2.0087 l 0.24296,-4.2524 c -3.58928,0.077 -7.74017,-0.6262 -11.04822,-1.8677 -10.36107,-3.8883 -14.46281,-13.8301 -10.31677,-24.8777 3.95865,-10.5483 12.67534,-14.6114 23.09883,-10.6996 3.4953,1.3118 7.14643,3.5365 9.986,6.0263 l 2.95027,-3.3077 c -2.55077,-2.8798 -6.66995,-5.565 -10.91424,-7.1578 -13.41946,-5.0362 -25.76486,0.7269 -30.87128,14.3336 -4.89561,13.045 0.37604,24.9923 13.17134,29.7943 z m 43.11776,8.8827 3.69552,0.53 2.96225,-20.6553 c 1.08837,-7.5891 -2.79336,-12.4561 -11.10829,-13.6486 -4.15747,-0.5962 -8.80578,-0.1179 -12.5118,1.3037 l 0.76146,4.0828 c 3.50778,-0.9786 6.91146,-1.2313 10.01306,-0.7865 5.67527,0.8139 8.2382,3.606 7.56625,8.2914 l -2.43226,16.9598 z m -11.37919,-0.9584 c 7.58902,1.0883 14.0117,-2.8397 15.94823,-9.7683 l -1.78126,-1.1983 c -1.69021,4.7414 -6.50939,7.3504 -11.98669,6.5648 -4.22345,-0.6057 -6.69225,-3.1149 -6.23797,-6.2825 0.5773,-4.0255 5.4993,-5.0033 16.78385,-3.3849 l 0.52053,-3.6296 c -14.8481,-2.1294 -21.67516,-0.078 -22.66888,6.8513 -0.81391,5.6753 2.88903,9.9105 9.42219,10.8475 z m 28.70798,1.7295 5.33229,-0.1059 -0.77715,-39.1257 c -0.0821,-4.1325 1.80851,-6.3038 5.47445,-6.3766 1.733,-0.034 4.00584,0.2538 5.68806,1.0206 l 1.05368,-4.0218 c -2.08612,-0.9587 -4.16562,-1.5842 -6.43184,-1.5392 -6.79866,0.135 -11.23976,4.8242 -11.10339,11.6895 z m -5.34848,-27.5659 20.12937,-0.3999 -0.0887,-4.4657 -20.12937,0.3998 z m 43.29931,24.5261 c 3.60409,-0.6745 7.3764,-2.2622 9.91208,-4.2967 l -1.89082,-3.5799 c -2.20382,1.6333 -5.14878,2.9305 -7.901,3.4456 -7.40478,1.3858 -12.715,-2.7072 -14.24797,-10.8984 -1.33675,-7.1426 1.13835,-11.6753 6.9049,-12.7545 5.37338,-1.0056 9.16875,1.8787 10.29701,7.9074 l -18.41365,3.4461 0.73583,3.9318 23.06621,-4.3169 c -0.0529,-1.0074 -0.35107,-3.3255 -0.58409,-4.5705 -1.48391,-7.929 -7.74412,-12.3868 -15.54207,-10.9275 -8.78089,1.6434 -13.45633,9.6399 -11.6413,19.3382 1.88862,10.0915 9.27893,15.1517 19.30487,13.2753 z m 32.3112,-9.8717 c 2.06367,-0.7624 3.9425,-2.0251 5.14978,-3.1819 l -2.46565,-3.2111 c -0.7763,0.7843 -2.05967,1.5427 -3.12277,1.9355 -3.12676,1.1551 -5.92975,-0.084 -7.03873,-3.0853 l -11.15909,-30.2045 -5.00282,1.8483 11.41323,30.8924 c 1.84829,5.0028 6.72294,7.0397 12.22605,5.0066 z m -22.89851,-21.3899 17.32229,-6.3998 -1.54795,-4.1898 -17.32229,6.3997 z m 49.58328,8.6054 c 3.17693,-1.8308 6.20994,-4.5789 7.92813,-7.3387 l -2.97032,-2.7511 c -1.53805,2.2714 -3.88673,4.4712 -6.31274,5.8692 -6.52713,3.7614 -12.89367,1.6594 -17.05445,-5.5609 -3.6282,-6.2961 -2.79503,-11.3928 2.28805,-14.322 4.7365,-2.7295 9.27326,-1.2659 12.33559,4.0483 l -16.23118,9.3534 1.99717,3.4657 20.3323,-11.7167 c -0.38376,-0.933 -1.43326,-3.0213 -2.0657,-4.1188 -4.02763,-6.9892 -11.41137,-9.1206 -18.28508,-5.1595 -7.74013,4.4604 -9.50144,13.5545 -4.57508,22.1033 5.12609,8.8953 13.77569,11.2206 22.61331,6.1278 z m 18.54162,-13.2471 4.09794,-3.4134 -15.78701,-18.953 -5.49592,-5.1397 -3.3808,2.816 z m -10.17906,-18.6786 c -1.16844,-4.3193 0.22386,-8.6894 3.60466,-11.5054 0.97326,-0.8107 2.0233,-1.4251 3.0989,-1.8004 l -2.13292,-4.6439 c -1.37438,0.5374 -2.62076,1.2285 -3.7477,2.1672 -3.32957,2.7734 -4.90966,7.1263 -4.27901,11.6334 z m 30.32195,0.5227 3.65383,-3.8851 -23.40768,-22.0143 -3.65384,3.8851 z m -25.04902,-27.8593 -0.57004,-12.4335 -5.35415,0.7302 2.82594,12.1756 z m 48.81535,-2.0674 2.13614,-3.0618 -17.11335,-11.9395 c -6.28765,-4.3867 -12.38075,-3.1101 -17.18706,3.779 -2.40316,3.4445 -4.06757,7.8109 -4.46554,11.7603 l 3.98874,1.157 c 0.70441,-3.5729 2.01026,-6.7263 3.80309,-9.296 3.2805,-4.7021 6.9272,-5.7346 10.80914,-3.0263 l 14.05154,9.8034 z m -5.97611,9.731 c 4.38672,-6.2877 3.76875,-13.7909 -1.54746,-18.6379 l -1.87167,1.0515 c 3.47378,3.6429 3.63528,9.1206 0.46921,13.6587 -2.4413,3.4992 -5.79302,4.5749 -8.41743,2.7439 -3.33519,-2.3269 -1.99374,-7.1624 4.52911,-16.5119 l -3.00713,-2.098 c -8.58271,12.3019 -9.82243,19.322 -4.08153,23.3272 4.70207,3.2805 10.15051,1.8793 13.9269,-3.5335 z"
         id="text113"
         aria-label="La Cafetería" />
      <circle
         style="fill:none;stroke:none;stroke-width:19.9748;stroke-opacity:1"
         id="path116"
         cx="67.681786"
         cy="1315.817"
         r="187.30835"
         transform="matrix(-0.81136157,0.58454461,0.58454461,0.81136157,0,0)" />
    </g>
  </g>
  <g
     id="g6"
     transform="matrix(1.5010111,0,0,1.5010111,-922.75631,-922.7563)">
    <circle
       style="fill:#ffffff;stroke-width:18.8976"
       id="path6"
       cx="748"
       cy="748"
       r="133.24352" />
    <path
       id="path2"
       d="m 822.418,784.74734 c -3.03067,12.87332 -11.98667,21.05732 -23.188,26.75465 -6.79333,3.452 -14.16534,5.808 -21.37068,8.4 -7.58132,2.72534 -15.27466,5.14667 -24.91598,8.36667 14.33732,-15.472 37.37999,-12.792 49.79333,-29.11467 -17.13868,7.12134 -33.58134,13.95467 -49.83733,20.70934 1.264,-5.216 5.78533,-9.58134 11.74266,-12.54934 7.57733,-3.77733 15.412,-7.03733 23.02267,-10.752 15.44665,-7.54 26.23599,-18.68399 27.488,-39.11999 8.48,9.15733 9.46933,17.94933 7.26533,27.30534 z m -51.49468,-5.37201 c -11.58266,3.30133 -10.67999,4.77733 -17.37333,14.176 -0.16533,-0.0893 -0.33466,-0.15866 -0.50933,-0.21866 2.18268,-4.36801 4.31866,-8.77333 7.43733,-12.31867 4.63067,-5.26 11.23468,-8.72667 16.56667,-13.44 8.32934,-7.36133 16.31201,-15.116 24.068,-22.35333 4.276,8.53333 1.48266,25.34534 -8.72667,34.404 -7.57467,6.72 -16.90533,11.48533 -25.548,16.972 -4.82399,3.06267 -9.748,5.91066 -14.51865,8.73333 0.24932,-2.04934 0.792,-4.00933 2.18399,-5.74533 5.03199,-5.10267 7.91999,-10.81067 13.32799,-13.05867 5.95335,-2.47333 12.84001,-9.00666 17.31734,-13.60533 -0.58534,-0.53466 -7.73067,4.25067 -14.22534,6.45466 z m -10.83333,-27.28532 c 9.13867,-8.89201 20.58933,-15.89734 23.496,-30.00135 4.02933,25.704 -8.91467,42.69601 -29.08133,55.88267 5.92533,-8.63733 11.85066,-17.276 17.776,-25.91332 -11.97467,4.676 -18.588,13.47466 -21.92667,25.088 -0.005,-9.64 2.74134,-18.25067 9.736,-25.056 z m -15.57733,85.80932 c -6.99067,-4.44667 -13.54933,-9.75867 -20.96,-13.30267 -8.76667,-4.19333 -18.536,-6.26667 -27.35867,-10.36133 -17.16933,-7.964 -27.252,-28.66667 -22.40133,-46.92 0.17467,-0.65733 0.91467,-3.27067 2.12,-4.66933 4.20933,22.57199 19.9,31.56266 39.70933,36.18133 10.492,2.44666 20.028,7.10133 26.816,15.91333 2,2.596 3.252,5.76667 3.32934,9.86533 -1.60799,-1.712 -2.94399,-3.86533 -4.87199,-5.05466 -6.86,-4.23734 -13.06,-10.80267 -20.97467,-12.01334 -9.88267,-1.51333 -22.204,-6.444 -30.932,-12.91066 3.38933,5.79866 3.616,6.85733 10.78133,13.75866 5.82934,5.61467 12.48,5.03334 20.308,7.37067 11.46534,3.42267 22.17734,7.51467 26.84267,19.98667 0.336,0.89866 1.54933,1.46933 1.62267,3.79733 -1.35067,-0.536 -2.82667,-0.87333 -4.03068,-1.64133 z M 690.16599,746.998 c 2.57334,3.85466 4.51467,6.64 6.33067,9.504 6.78268,10.692 16.70133,16.324 28.86933,19.188 12.69467,2.988 19.62934,11.13466 20.80134,24.52399 -4.04267,-10.22933 -11.62134,-12.988 -19.62267,-15.32666 -7.51599,-2.196 -14.92666,-4.75733 -22.89867,-7.324 4.48135,8.48133 12.02667,12.12533 20.31867,14.97866 4.95867,1.70534 10.40133,3.096 14.396,6.208 3.99067,3.10934 6.44933,8.188 8.53067,13.38667 -6.83334,-10.36133 -17.56134,-12.63867 -28.22934,-15.41067 -23.75066,-6.172 -36.07733,-27.14933 -28.496,-49.72799 z m 41.19734,6.736 c 7.60667,5.40933 11.46267,13.14666 12.86801,22.26 -4.85468,-10.48934 -12.39201,-17.83734 -24.396,-20.50534 6.86533,7.296 13.72933,14.59334 20.59333,21.892 -20.99067,-9.51333 -35.71067,-23.68 -35.664,-48.56533 4.81067,12.90667 16.66,17.85333 26.59866,24.91867 z m -6.32934,-46.41067 c 7.86001,13.30133 15.588,26.38133 22.23068,37.62533 6.30399,-12.51333 13.53733,-26.87066 20.81466,-41.316 6.61866,9.876 5.62667,28.84801 -2.204,36.812 -5.83333,5.93467 -12.15599,11.388 -17.88799,16.71067 -6.67334,-5.83467 -13.66934,-11.72133 -20.4,-17.89733 -8.628,-7.91466 -9.744,-21.34934 -2.55335,-31.93467 z m 8.58134,-18.67733 c 4.984,7.75066 9.77333,15.196 14.23733,22.13866 4.24533,-7.35466 8.89201,-15.40133 14.25734,-24.696 8.356,19.88134 -11.86133,28.12 -14.27333,42.72667 -13.62933,-13.25867 -20.124,-30.864 -14.22134,-40.16933 z m 4.98266,-25.64934 c 3.21867,0.89867 5.56,4.932 8.264,7.564 0.008,0 0.0213,0.003 0.0293,0.003 0.008,0 0.0213,-0.003 0.0293,-0.003 2.70267,-2.632 5.04533,-6.66533 8.26266,-7.564 3.56133,-0.99599 8.08533,7.91067 5.768,12.78667 -3.48266,7.33067 -8.02399,14.228 -12.92266,22.384 -0.31333,0.72401 -0.62533,1.44667 -0.944,2.20533 -0.0653,-0.11199 -0.128,-0.20933 -0.19333,-0.32 -0.0653,0.11067 -0.128,0.20801 -0.19334,0.32 -0.31866,-0.75866 -0.632,-1.48132 -0.94533,-2.20533 -4.89733,-8.156 -9.43867,-15.05333 -12.92133,-22.384 -2.31867,-4.876 2.20533,-13.78266 5.76666,-12.78667 z m 9.40268,-20.85333 c -58.464,0 -105.85734,47.39333 -105.85734,105.85734 0,58.46132 47.39334,105.856 105.85734,105.856 58.46266,0 105.856,-47.39468 105.856,-105.856 0,-58.464 -47.39334,-105.85734 -105.856,-105.85734"
       style="fill:url(#linearGradient5);fill-opacity:1;fill-rule:nonzero;stroke:none;stroke-width:0.133333" />
  </g>
  <circle
     style="fill:none;stroke-width:18.8976"
     id="circle2"
     cx="466.59152"
     cy="-52.239594"
     r="172.70517" />
  <circle
     style="fill:none;stroke:none;stroke-width:19.9748;stroke-opacity:1"
     id="circle3"
     cx="-381.8663"
     cy="226.78729"
     r="187.30835"
     transform="matrix(-0.81136157,0.58454461,0.58454461,0.81136157,0,0)" />
</svg>
