<?xml version="1.0" encoding="UTF-8" standalone="no"?>
<!-- Created with Inkscape (http://www.inkscape.org/) -->

<svg
   version="1.1"
   id="svg1"
   width="480.82971"
   height="450.43997"
   viewBox="0 0 480.8297 450.43996"
   xmlns="http://www.w3.org/2000/svg"
   xmlns:svg="http://www.w3.org/2000/svg">
  <defs
     id="defs1" />
  <g
     id="g1"
     transform="translate(-1099.3602,-122.82676)">
    <path
       id="path38"
       d="m 1364.8933,492.88009 h -55.9787 c -32.3493,0 -57.052,-8.58667 -73.4213,-25.52 -16.0387,-16.6 -24.1707,-41.33333 -24.1707,-73.50667 v -84.67999 c 0,-2.37334 1.9214,-4.29334 4.2907,-4.29334 h 236.84 c 2.3733,0 4.2933,1.92 4.2933,4.29334 v 107.65333 c 0,2.37333 -1.92,4.29333 -4.2933,4.29333 -2.3733,0 -4.2933,-1.92 -4.2933,-4.29333 v -103.36 h -228.256 v 80.38666 c 0,60.86667 29.116,90.45333 89.0106,90.45333 h 55.9787 c 58,0 77.3867,-25.23999 83.44,-46.41333 0.52,-1.84 2.2,-3.10666 4.12,-3.10666 40.5333,0 97.6267,-22.94667 97.6267,-73.94667 0,-18.17333 -4.52,-32.81333 -13.08,-42.33333 -7.08,-7.89333 -16.9734,-12.22667 -27.8534,-12.22667 -18.9866,0 -39.48,13.72 -39.48,35.90667 v 30.14666 c 0,2.36 -1.92,4.28 -4.2933,4.28 -2.3733,0 -4.2933,-1.92 -4.2933,-4.28 v -30.14666 c 0,-27.48 24.9466,-44.49333 48.0666,-44.49333 13.3467,0 25.5067,5.36 34.24,15.08 9.9867,11.12 15.2667,27.74666 15.2667,48.06666 0,50.61333 -51.8267,81.26667 -103.0267,82.49333 -7.8,23.30667 -30.0666,49.54667 -90.7333,49.54667"
       style="fill:#451717;fill-opacity:1;fill-rule:nonzero;stroke:none;stroke-width:0.133333" />
    <path
       id="path39"
       d="m 1347.6666,573.26675 c -205.328,0 -246.0613,-63.96 -247.6946,-66.68 -0.796,-1.32 -0.816,-2.97333 -0.055,-4.32 0.7613,-1.34666 2.188,-2.17333 3.7347,-2.17333 H 1507.6 c 2.36,0 4.28,1.92 4.28,4.29333 0,2.36 -1.92,4.29334 -4.28,4.29334 h -394.5947 c 6.1453,5.98666 17.9627,15.33333 38.6387,24.62666 31.8466,14.32 91.708,31.37334 196.0226,31.37334 169.16,0 224.4267,-62.44 224.96,-63.06667 1.5334,-1.8 4.24,-2.02667 6.04,-0.49333 1.8134,1.53333 2.04,4.22666 0.5067,6.02666 -2.28,2.70667 -57.8267,66.12 -231.5067,66.12"
       style="fill:#451717;fill-opacity:1;fill-rule:nonzero;stroke:none;stroke-width:0.133333" />
    <path
       id="path40"
       d="m 1331.7293,292.48009 c -2.3707,0 -4.292,-1.92 -4.292,-4.29333 0,-9.82667 5.1573,-14.98667 9.3093,-19.14667 3.7867,-3.78666 6.7867,-6.78666 6.7867,-13.06666 0,-6.28 -3,-9.28 -6.8,-13.08 -4.1387,-4.14667 -9.296,-9.30667 -9.296,-19.14667 0,-9.82667 5.1573,-14.98667 9.3093,-19.13333 3.7867,-3.8 6.7867,-6.8 6.7867,-13.06667 0,-6.28 -3,-9.28 -6.7867,-13.08 -4.152,-4.14666 -9.3093,-9.30666 -9.3093,-19.13333 0,-9.84 5.1573,-15 9.3093,-19.14667 3.7867,-3.8 6.7867,-6.78666 6.7867,-13.06666 0,-2.37334 1.92,-4.29334 4.2933,-4.29334 2.3734,0 4.2934,1.92 4.2934,4.29334 0,9.82666 -5.16,14.98666 -9.3067,19.13333 -3.8,3.8 -6.7867,6.8 -6.7867,13.08 0,6.28 2.9867,9.26667 6.7867,13.06667 4.1467,4.14666 9.3067,9.30666 9.3067,19.14666 0,9.82667 -5.16,14.98667 -9.3067,19.13333 -3.8,3.8 -6.7867,6.8 -6.7867,13.06667 0,6.28 2.9867,9.28 6.7867,13.08 4.1467,4.14667 9.3067,9.30667 9.3067,19.14667 0,9.82666 -5.16,14.98666 -9.3067,19.13333 -3.8,3.8 -6.7867,6.8 -6.7867,13.08 0,2.37333 -1.9333,4.29333 -4.2973,4.29333"
       style="fill:#451717;fill-opacity:1;fill-rule:nonzero;stroke:none;stroke-width:0.133333" />
    <path
       id="path41"
       d="m 1296.7226,292.48009 c -2.3693,0 -4.2906,-1.92 -4.2906,-4.29333 0,-9.82667 5.1573,-14.98667 9.3013,-19.14667 3.7947,-3.78666 6.792,-6.78666 6.792,-13.06666 0,-6.28 -2.9973,-9.28 -6.792,-13.08 -4.144,-4.14667 -9.3013,-9.30667 -9.3013,-19.14667 0,-9.82667 5.1573,-14.98667 9.3013,-19.13333 3.7947,-3.8 6.792,-6.8 6.792,-13.06667 0,-2.37333 1.92,-4.29333 4.2907,-4.29333 2.3693,0 4.292,1.92 4.292,4.29333 0,9.82667 -5.16,14.98667 -9.3027,19.13333 -3.7947,3.8 -6.7893,6.8 -6.7893,13.06667 0,6.28 2.9946,9.28 6.7893,13.08 4.1427,4.14667 9.3027,9.30667 9.3027,19.14667 0,9.82666 -5.16,14.98666 -9.3027,19.13333 -3.7947,3.8 -6.7893,6.8 -6.7893,13.08 0,2.37333 -1.9227,4.29333 -4.2934,4.29333"
       style="fill:#451717;fill-opacity:1;fill-rule:nonzero;stroke:none;stroke-width:0.133333" />
    <path
       id="path42"
       d="m 1366.7333,292.48009 c -2.3733,0 -4.2933,-1.92 -4.2933,-4.29333 0,-9.82667 5.16,-14.98667 9.3066,-19.14667 3.8,-3.78666 6.7867,-6.78666 6.7867,-13.06666 0,-6.28 -2.9867,-9.28 -6.7867,-13.08 -4.1466,-4.14667 -9.3066,-9.30667 -9.3066,-19.14667 0,-9.82667 5.16,-14.98667 9.3066,-19.13333 3.8,-3.8 6.7867,-6.8 6.7867,-13.06667 0,-2.37333 1.9333,-4.29333 4.2933,-4.29333 2.3734,0 4.2934,1.92 4.2934,4.29333 0,9.82667 -5.16,14.98667 -9.3067,19.13333 -3.7867,3.8 -6.7867,6.8 -6.7867,13.06667 0,6.28 3,9.28 6.7867,13.08 4.1467,4.14667 9.3067,9.30667 9.3067,19.14667 0,9.82666 -5.16,14.98666 -9.3067,19.13333 -3.7867,3.8 -6.7867,6.8 -6.7867,13.08 0,2.37333 -1.92,4.29333 -4.2933,4.29333"
       style="fill:#451717;fill-opacity:1;fill-rule:nonzero;stroke:none;stroke-width:0.133333" />
  </g>
</svg>
