<?xml version="1.0" encoding="UTF-8" standalone="no"?>
<!-- Created with Inkscape (http://www.inkscape.org/) -->

<svg
   version="1.1"
   id="svg1"
   width="468.29956"
   height="378.88025"
   viewBox="0 0 468.29955 378.88024"
   xmlns="http://www.w3.org/2000/svg"
   xmlns:svg="http://www.w3.org/2000/svg">
  <defs
     id="defs1" />
  <g
     id="g1"
     transform="translate(-1105.6261,-1044.0132)">
    <path
       id="path16"
       d="m 1347.4666,1422.8934 c -199.9533,0 -239.6386,-62.3067 -241.2293,-64.96 -0.7947,-1.32 -0.816,-2.9733 -0.055,-4.32 0.7614,-1.3467 2.188,-2.1733 3.7347,-2.1733 h 393.216 c 2.3733,0 4.2933,1.92 4.2933,4.28 0,2.3733 -1.92,4.2933 -4.2933,4.2933 h -383.829 c 6.0306,5.84 17.5,14.84 37.4106,23.7733 30.992,13.9334 89.2414,30.5334 190.752,30.5334 165.16,0 218.3734,-60.7467 218.8934,-61.36 1.52,-1.8134 4.2266,-2.04 6.04,-0.52 1.8133,1.5333 2.04,4.24 0.52,6.0533 -2.2267,2.6267 -56.3334,64.4 -225.4534,64.4"
       style="fill:#451717;fill-opacity:1;fill-rule:nonzero;stroke:none;stroke-width:0.133333" />
    <path
       id="path17"
       d="m 1383.12,1343.5734 h -110.2094 c -1.1213,0 -2.1986,-0.44 -3,-1.2267 -50.532,-49.4533 -69.8666,-109.68 -68.96,-214.8 0.02,-2.36 1.9374,-4.2666 4.292,-4.2666 h 245.544 c 1.1734,0 2.3067,0.4933 3.1067,1.3466 0.8133,0.8534 1.24,2 1.1733,3.1734 -0.1466,3.0133 -4.0133,74.4133 -15.6,116.9066 -0.6266,2.2934 -2.9866,3.64 -5.28,3.0134 -2.28,-0.6267 -3.6266,-2.9867 -3.0133,-5.2667 9.72,-35.6 14,-94 15.0533,-110.5867 H 1209.508 c -0.3414,113.9867 25.7653,164.08 65.1613,203.1334 h 106.9573 c 20.4667,-16.5467 37.9067,-50.3467 42.9867,-62.1734 0.6667,-1.5733 2.2267,-2.6 3.9333,-2.6 37.9467,0 108.8267,-25.4 108.8267,-86.5866 0,-14.3067 -3.7333,-25.8534 -10.8,-33.3867 -5.9333,-6.32 -14.2667,-9.8133 -23.48,-9.8133 -17.9733,0 -37.3867,13.56 -37.3867,35.4666 0,2.3734 -1.92,4.2934 -4.2933,4.2934 -2.36,0 -4.28,-1.92 -4.28,-4.2934 0,-27.2 23.8533,-44.04 45.96,-44.04 11.6133,0 22.1733,4.44 29.7333,12.52 8.5867,9.1467 13.12,22.7334 13.12,39.2534 0,65.7466 -73.0666,93.8933 -114.5866,95.12 -6.5867,14.44 -24.5734,47.6666 -45.6134,63.92 -0.76,0.5866 -1.68,0.8933 -2.6266,0.8933"
       style="fill:#451717;fill-opacity:1;fill-rule:nonzero;stroke:none;stroke-width:0.133333" />
    <path
       id="path18"
       d="m 1400.52,1117.3601 c -1.9867,0 -3.7734,-1.3867 -4.2,-3.4 -0.4934,-2.32 1,-4.6 3.32,-5.08 8.3466,-1.76 13.7866,-4.8 14.9066,-8.3467 1.1067,-3.4667 -1.8933,-7.7067 -4.6133,-10.6533 -5.4,-5.84 -20.6933,-10.08 -35.48,-14.1734 -17.3067,-4.8 -35.1067,-9.7333 -45.88,-18.5333 -7.04,16.1067 -33.3347,21.48 -53.296,25.5733 -7.1227,1.4534 -13.8493,2.8267 -18.3507,4.4134 -8.048,2.8133 -11.6666,8.6133 -10.9826,12.6266 0.74,4.3467 6.688,9 21.1666,9 h 115.036 c 2.3734,0 4.2934,1.92 4.2934,4.2934 0,2.36 -1.92,4.28 -4.2934,4.28 h -115.036 c -24.9466,0 -28.984,-12.3467 -29.628,-16.1334 -1.544,-9.0933 5.2854,-18.2133 16.608,-22.1733 5.048,-1.76 11.728,-3.1333 19.4654,-4.72 21.488,-4.4 48.232,-9.88 48.232,-26.0267 0,-1.88 1.228,-3.5466 3.028,-4.1066 1.7946,-0.5467 3.748,0.1333 4.8106,1.68 7.1334,10.48 28.3867,16.36 47.12,21.5466 17.4,4.8267 32.44,8.9867 39.4934,16.64 7.72,8.36 7.7866,14.9867 6.4933,19.0667 -1.5067,4.72 -6.4267,11 -21.3333,14.1333 -0.2934,0.067 -0.6,0.093 -0.88,0.093"
       style="fill:#451717;fill-opacity:1;fill-rule:nonzero;stroke:none;stroke-width:0.133333" />
  </g>
</svg>
