<?xml version="1.0" encoding="UTF-8" standalone="no"?>
<!-- Created with Inkscape (http://www.inkscape.org/) -->

<svg
   version="1.1"
   id="svg1"
   width="371.12875"
   height="381.03998"
   viewBox="0 0 371.12875 381.03997"
   xmlns="http://www.w3.org/2000/svg"
   xmlns:svg="http://www.w3.org/2000/svg">
  <defs
     id="defs1" />
  <g
     id="g1"
     transform="translate(-263.62381,-151.18677)">
    <path
       id="path3"
       d="M 502.91599,470.52009 H 391.05466 c -1.94134,0 -3.63867,-1.29334 -4.144,-3.17334 L 349.72532,329.60009 c -0.34666,-1.28 -0.076,-2.66666 0.73734,-3.72 0.812,-1.06666 2.07066,-1.68 3.40666,-1.68 h 181.82267 c 1.31733,0 2.56133,0.6 3.37466,1.62667 0.81467,1.04 1.10667,2.4 0.79467,3.68 l -19.52267,80.06666 c -0.56133,2.30667 -2.87733,3.72 -5.18666,3.16 -2.30134,-0.56 -3.71334,-2.88 -3.152,-5.18666 l 18.22933,-74.77333 H 359.47199 l 34.868,129.17333 h 105.18533 l 8.032,-33.77334 c 0.48533,-2.02666 2.34267,-3.41333 4.43467,-3.28 0.57733,0.04 57.70933,3.04 73.92,-31.41333 5.43866,-11.56 5.43733,-23.57333 -0.003,-32.14667 -3.57067,-5.62666 -9.13067,-8.85333 -15.25867,-8.85333 -9.00133,0 -24.82933,3.10667 -29.688,23.93333 -0.53866,2.30667 -2.83866,3.73334 -5.156,3.2 -2.30666,-0.54666 -3.74133,-2.85333 -3.20266,-5.16 6.61866,-28.34666 30.79466,-30.56 38.04666,-30.56 9.12534,0 17.328,4.68 22.504,12.84 7.024,11.06667 7.21867,26.17334 0.52267,40.4 -16.31067,34.66667 -64.76,36.62667 -78.57867,36.44 l -8.008,33.65333 c -0.45866,1.93334 -2.18666,3.29334 -4.17466,3.29334"
       style="fill:#451717;fill-opacity:1;fill-rule:nonzero;stroke:none;stroke-width:0.133333" />
    <path
       id="path4"
       d="m 455.25066,532.22675 c -158.19467,0 -189.75067,-49.56 -191.01467,-51.66666 -0.796,-1.32 -0.81733,-2.97334 -0.0547,-4.32 0.76,-1.34667 2.18666,-2.17334 3.73333,-2.17334 h 310.11066 c 2.36933,0 4.29067,1.92 4.29067,4.28 0,2.37334 -1.92134,4.29334 -4.29067,4.29334 H 277.70399 c 14.73467,13.01333 60.10133,41.01333 177.54667,41.01333 129.27999,0 171.53066,-47.6 171.94399,-48.08 1.53733,-1.8 4.244,-2.01333 6.04267,-0.48 1.80266,1.53333 2.02933,4.22667 0.50533,6.02667 -1.76267,2.09333 -44.70133,51.10666 -178.49199,51.10666"
       style="fill:#451717;fill-opacity:1;fill-rule:nonzero;stroke:none;stroke-width:0.133333" />
    <path
       id="path5"
       d="m 441.48132,314.04009 c -2.37066,0 -4.292,-1.92 -4.292,-4.29333 0,-9.49333 4.97067,-14.46667 8.96267,-18.45333 3.60667,-3.61334 6.45467,-6.46667 6.45467,-12.4 0,-5.93334 -2.848,-8.78667 -6.45467,-12.4 -3.992,-3.98667 -8.96267,-8.96 -8.96267,-18.45334 0,-9.49333 4.972,-14.46666 8.964,-18.46666 3.60534,-3.6 6.45334,-6.45334 6.45334,-12.38667 0,-5.94667 -2.848,-8.78667 -6.45334,-12.4 -3.992,-4 -8.964,-8.97333 -8.964,-18.45333 0,-9.49333 4.972,-14.46667 8.964,-18.46667 3.60534,-3.6 6.45334,-6.45333 6.45334,-12.38666 0,-2.37334 1.92,-4.29334 4.29066,-4.29334 2.37067,0 4.292,1.92 4.292,4.29334 0,9.48 -4.972,14.45333 -8.964,18.45333 -3.60533,3.61333 -6.452,6.45333 -6.452,12.4 0,5.93333 2.84667,8.78667 6.452,12.38667 3.992,3.99999 8.964,8.97333 8.964,18.46666 0,9.49333 -4.972,14.45333 -8.964,18.45333 -3.60533,3.61334 -6.452,6.45334 -6.452,12.4 0,5.93334 2.84667,8.78667 6.45067,12.38667 3.99333,4 8.96533,8.97333 8.96533,18.46667 0,9.49333 -4.972,14.46666 -8.96533,18.46666 -3.604,3.6 -6.45067,6.45334 -6.45067,12.38667 0,2.37333 -1.92133,4.29333 -4.292,4.29333"
       style="fill:#451717;fill-opacity:1;fill-rule:nonzero;stroke:none;stroke-width:0.133333" />
    <path
       id="path6"
       d="m 407.95066,314.04009 c -2.36934,0 -4.29067,-1.92 -4.29067,-4.29333 0,-9.49333 4.96933,-14.46667 8.96267,-18.45333 3.60533,-3.61334 6.45333,-6.46667 6.45333,-12.4 0,-5.93334 -2.848,-8.78667 -6.45333,-12.4 -3.99334,-3.98667 -8.96267,-8.96 -8.96267,-18.45334 0,-9.49333 4.97067,-14.46666 8.964,-18.46666 3.604,-3.6 6.452,-6.45334 6.452,-12.38667 0,-2.37333 1.92133,-4.29333 4.29067,-4.29333 2.37066,0 4.292,1.92 4.292,4.29333 0,9.49333 -4.97067,14.45333 -8.964,18.45333 -3.604,3.61334 -6.452,6.45334 -6.452,12.4 0,5.93334 2.848,8.78667 6.452,12.38667 3.99333,4 8.964,8.97333 8.964,18.46667 0,9.49333 -4.97067,14.46666 -8.964,18.46666 -3.604,3.6 -6.452,6.45334 -6.452,12.38667 0,2.37333 -1.92134,4.29333 -4.292,4.29333"
       style="fill:#451717;fill-opacity:1;fill-rule:nonzero;stroke:none;stroke-width:0.133333" />
    <path
       id="path7"
       d="m 475.01199,314.04009 c -2.37067,0 -4.292,-1.92 -4.292,-4.29333 0,-9.49333 4.96933,-14.46667 8.96266,-18.45333 3.604,-3.61334 6.452,-6.46667 6.452,-12.4 0,-5.93334 -2.848,-8.78667 -6.452,-12.4 -3.992,-3.98667 -8.96266,-8.97334 -8.96266,-18.45334 0,-9.49333 4.97066,-14.46666 8.96266,-18.46666 3.604,-3.6 6.452,-6.45334 6.452,-12.38667 0,-2.37333 1.92134,-4.29333 4.292,-4.29333 2.36934,0 4.29067,1.92 4.29067,4.29333 0,9.49333 -4.96933,14.45333 -8.96267,18.45333 -3.60533,3.61334 -6.45066,6.45334 -6.45066,12.4 0,5.93334 2.84533,8.78667 6.45066,12.38667 3.99334,4 8.96267,8.97333 8.96267,18.46667 0,9.49333 -4.97067,14.46666 -8.96267,18.46666 -3.60533,3.6 -6.45066,6.45334 -6.45066,12.38667 0,2.37333 -1.92134,4.29333 -4.292,4.29333"
       style="fill:#451717;fill-opacity:1;fill-rule:nonzero;stroke:none;stroke-width:0.133333" />
  </g>
</svg>
