<?xml version="1.0" encoding="UTF-8" standalone="no"?>
<!-- Created with Inkscape (http://www.inkscape.org/) -->

<svg
   version="1.1"
   id="svg1"
   width="235.30664"
   height="528.23541"
   viewBox="0 0 235.30664 528.2354"
   xmlns="http://www.w3.org/2000/svg"
   xmlns:svg="http://www.w3.org/2000/svg">
  <defs
     id="defs1" />
  <g
     id="g1"
     transform="translate(-2117.5867,-44.444669)">
    <path
       id="path52"
       d="m 2306.9066,194.18676 c -1.9867,0 -3.7733,-1.38666 -4.1867,-3.41333 -0.4933,-2.32 0.9867,-4.58667 3.3067,-5.08 8.56,-1.8 14.1333,-4.93333 15.2933,-8.58667 1.1467,-3.57333 -1.9466,-7.93333 -4.7333,-10.96 -5.5333,-5.98666 -21.1467,-10.30666 -36.2667,-14.49333 -17.7066,-4.90667 -35.9333,-9.96 -46.9066,-18.98667 -7.0934,16.48 -33.9867,21.98667 -54.3867,26.17334 -7.28,1.48 -14.1467,2.89333 -18.76,4.50666 -8.2533,2.89334 -11.96,8.85334 -11.2667,13 0.76,4.46667 6.8667,9.25334 21.7067,9.25334 h 117.4533 c 2.3734,0 4.2934,1.92 4.2934,4.29333 0,2.37333 -1.92,4.29333 -4.2934,4.29333 h -117.4533 c -25.4,0 -29.5067,-12.56 -30.16,-16.4 -1.5733,-9.24 5.3733,-18.50666 16.8933,-22.54666 5.1467,-1.8 11.9734,-3.2 19.8667,-4.81334 21.96,-4.49333 49.3067,-10.09333 49.3067,-26.66666 0,-1.88 1.2266,-3.54667 3.0266,-4.09334 1.8134,-0.56 3.76,0.12 4.8134,1.68 7.3066,10.72 29.0133,16.73334 48.16,22.02667 17.76,4.92 33.0933,9.17333 40.28,16.96 7.8533,8.50667 7.9333,15.24 6.6133,19.38667 -1.5333,4.78666 -6.5467,11.17333 -21.7067,14.37333 -0.3066,0.0533 -0.6,0.0933 -0.8933,0.0933"
       style="fill:#451717;fill-opacity:1;fill-rule:nonzero;stroke:none;stroke-width:0.133333" />
    <path
       id="path53"
       d="m 2348.5999,209.49343 h -226.72 c -2.36,0 -4.2933,-1.92 -4.2933,-4.29334 0,-2.37333 1.9333,-4.29333 4.2933,-4.29333 h 226.72 c 2.3734,0 4.2934,1.92 4.2934,4.29333 0,2.37334 -1.92,4.29334 -4.2934,4.29334"
       style="fill:#451717;fill-opacity:1;fill-rule:nonzero;stroke:none;stroke-width:0.133333" />
    <path
       id="path54"
       d="m 2308.9866,572.68009 h -147.48 c -2.1067,0 -3.9067,-1.53334 -4.24,-3.6 -0.3333,-2.08 0.88,-4.10667 2.88,-4.77334 21.84,-7.28 56.4933,-23.97333 56.4933,-37.74666 0,-6.22667 0,-9.36 -0.8933,-11.34667 -0.8933,-1.98667 -3.2267,-4.01333 -7.8667,-8.06667 -4.4666,-3.90666 -11.2133,-9.8 -20.8,-19.37333 -52.5066,-52.49333 -69.4933,-213.03999 -69.4933,-282.57333 0,-2.37333 1.9333,-4.29333 4.2933,-4.29333 2.3734,0 4.2934,1.92 4.2934,4.29333 0,68.36 16.3733,225.90667 66.9733,276.50666 9.3733,9.37334 15.7333,14.92 20.3733,18.97334 11.16,9.73333 11.7067,10.94666 11.7067,25.88 0,15.66666 -23.0533,29.25333 -41.2667,37.53333 h 102.56 c -18.2,-8.28 -41.2666,-21.86667 -41.2666,-37.53333 0,-14.93334 0.5466,-16.14667 11.7066,-25.88 4.64,-4.05334 11,-9.6 20.3734,-18.97334 45.9066,-45.90666 63.3466,-180.29332 66.4266,-252.47999 0.093,-2.36 2.12,-4.22667 4.4667,-4.09333 2.36,0.0933 4.2,2.09333 4.1067,4.46666 -3.12,73.41334 -21.16,210.4 -68.9334,258.17333 -9.5733,9.57333 -16.32,15.46667 -20.7866,19.37333 -4.64,4.04 -6.9734,6.08 -7.8667,8.06667 -0.9067,1.98667 -0.9067,5.10667 -0.9067,11.34667 0,13.78666 34.6534,30.46666 56.4934,37.74666 2,0.66667 3.2266,2.68 2.88,4.76 -0.3334,2.08 -2.12,3.61334 -4.2267,3.61334"
       style="fill:#451717;fill-opacity:1;fill-rule:nonzero;stroke:none;stroke-width:0.133333" />
    <path
       id="path55"
       d="m 2312.7333,145.6401 c -0.24,0 -0.48,-0.0133 -0.7334,-0.0533 -2.3333,-0.4 -3.9066,-2.61333 -3.5066,-4.96 l 14.4133,-84.693328 -13.24,-2.253333 -13.9333,81.933331 c -0.4,2.33333 -2.6267,3.90667 -4.96,3.50667 -2.3334,-0.4 -3.9067,-2.61334 -3.5067,-4.94667 l 14.6533,-86.159998 c 0.4,-2.333333 2.6267,-3.906666 4.96,-3.506666 l 21.6934,3.693333 c 1.12,0.186666 2.12,0.813333 2.7866,1.746666 0.6534,0.92 0.92,2.08 0.72,3.2 l -15.12,88.933335 c -0.36,2.08 -2.1733,3.56 -4.2266,3.56"
       style="fill:#451717;fill-opacity:1;fill-rule:nonzero;stroke:none;stroke-width:0.133333" />
  </g>
</svg>
