<?xml version="1.0" encoding="UTF-8" standalone="no"?>
<!-- Created with Inkscape (http://www.inkscape.org/) -->

<svg
   version="1.1"
   id="svg1"
   width="290.33163"
   height="439.64001"
   viewBox="0 0 290.33163 439.64001"
   xmlns="http://www.w3.org/2000/svg"
   xmlns:svg="http://www.w3.org/2000/svg">
  <defs
     id="defs1" />
  <g
     id="g1"
     transform="translate(-304.02335,-1009.6001)">
    <path
       id="path72"
       d="M 534.36665,1449.2401 H 362.93999 c -2.14,0 -3.952,-1.5734 -4.25067,-3.6934 l -54.62399,-388 c -0.172,-1.2266 0.18933,-2.4533 0.992,-3.4 0.804,-0.9333 1.97066,-1.48 3.204,-1.4933 l 281.74799,-3.44 c 0.0187,0 0.0373,0 0.0547,0 2.34666,0 4.26,1.88 4.29066,4.2267 0.028,2.3733 -1.86933,4.32 -4.24,4.3466 l -276.87066,3.3867 53.42533,379.4933 h 163.97333 l 51.04667,-358.7733 c 0.33467,-2.3467 2.508,-3.9733 4.85333,-3.64 2.34534,0.3333 3.97734,2.5067 3.644,4.8533 l -51.572,362.4534 c -0.30133,2.1066 -2.112,3.68 -4.248,3.68"
       style="fill:#451717;fill-opacity:1;fill-rule:nonzero;stroke:none;stroke-width:0.133333" />
    <path
       id="path73"
       d="m 573.09599,1049.8934 c -12.02534,0 -18.16934,-5.7867 -23.59067,-10.88 -4.87467,-4.6 -9.08667,-8.56 -17.71067,-8.56 -9.82533,0 -14.60266,1.12 -19.664,2.32 -5.31466,1.2533 -10.80933,2.5467 -21.632,2.5467 -11.87466,0 -17.99466,-5.08 -23.392,-9.56 -4.90133,-4.0667 -9.13466,-7.5867 -17.90933,-7.5867 -8.776,0 -13.008,3.52 -17.908,7.5867 -5.39866,4.48 -11.516,9.56 -23.39066,9.56 -10.824,0 -16.31867,-1.2934 -21.636,-2.5467 -5.06,-1.2 -9.84134,-2.32 -19.67067,-2.32 -8.624,0 -12.836,3.96 -17.712,8.56 -5.42267,5.0933 -11.56667,10.88 -23.59733,10.88 -2.37067,0 -4.292,-1.92 -4.292,-4.2933 0,-2.3734 1.92133,-4.2934 4.292,-4.2934 8.62666,0 12.83733,-3.96 17.71466,-8.5466 5.42,-5.1067 11.56534,-10.8934 23.59467,-10.8934 10.82533,0 16.32267,1.2934 21.63867,2.5467 5.06,1.2 9.84133,2.32 19.668,2.32 8.776,0 13.00933,-3.52 17.90933,-7.5867 5.39733,-4.48 11.516,-9.5466 23.38933,-9.5466 11.87334,0 17.992,5.0666 23.38933,9.5466 4.90267,4.0667 9.13467,7.5867 17.912,7.5867 9.82667,0 14.60534,-1.12 19.66534,-2.32 5.31466,-1.2533 10.80933,-2.5467 21.63066,-2.5467 12.028,0 18.17334,5.7867 23.59467,10.8934 4.87467,4.5866 9.084,8.5466 17.70667,8.5466 2.372,0 4.292,1.92 4.292,4.2934 0,2.3733 -1.92,4.2933 -4.292,4.2933"
       style="fill:#451717;fill-opacity:1;fill-rule:nonzero;stroke:none;stroke-width:0.133333" />
    <path
       id="path74"
       d="m 568.63465,1141.9067 c -12.73733,0 -19.18666,-2.4666 -25.42266,-4.8533 -5.76267,-2.2 -11.20667,-4.28 -22.36,-4.28 -11.152,0 -16.59467,2.08 -22.356,4.28 -6.23734,2.3867 -12.68667,4.8533 -25.42534,4.8533 -12.73866,0 -19.18533,-2.4666 -25.42399,-4.8533 -5.76,-2.2 -11.20267,-4.28 -22.352,-4.28 -11.152,0 -16.59467,2.08 -22.356,4.28 -6.23734,2.3867 -12.68534,4.8533 -25.42,4.8533 -12.73734,0 -19.18534,-2.4666 -25.42134,-4.8533 -5.76133,-2.2 -11.20266,-4.28 -22.35333,-4.28 -2.36933,0 -4.29066,-1.92 -4.29066,-4.2933 0,-2.3734 1.92133,-4.2934 4.29066,-4.2934 12.736,0 19.184,2.4667 25.42133,4.8534 5.76,2.2133 11.20134,4.2933 22.35334,4.2933 11.14933,0 16.592,-2.08 22.352,-4.2933 6.23866,-2.3867 12.68666,-4.8534 25.424,-4.8534 12.73466,0 19.184,2.4667 25.41866,4.8534 5.76267,2.2133 11.20534,4.2933 22.35733,4.2933 11.15334,0 16.596,-2.08 22.35867,-4.2933 6.236,-2.3867 12.684,-4.8534 25.42267,-4.8534 12.73866,0 19.188,2.4667 25.42666,4.8534 5.76,2.2133 11.20267,4.2933 22.356,4.2933 2.36934,0 4.29067,1.92 4.29067,4.28 0,2.3733 -1.92133,4.2933 -4.29067,4.2933"
       style="fill:#451717;fill-opacity:1;fill-rule:nonzero;stroke:none;stroke-width:0.133333" />
    <path
       id="path75"
       d="m 548.08532,1246.5334 c -10.83467,0 -16.544,-2.64 -21.58267,-4.9733 -4.848,-2.24 -9.03333,-4.1734 -17.98,-4.1734 -8.94666,0 -13.13333,1.9334 -17.97866,4.1734 -5.04,2.3333 -10.74934,4.9733 -21.584,4.9733 -10.83333,0 -16.54267,-2.64 -21.57867,-4.9733 -4.84666,-2.24 -9.032,-4.1734 -17.976,-4.1734 -8.94533,0 -13.13066,1.9334 -17.97733,4.1734 -5.03867,2.3333 -10.74667,4.9733 -21.58,4.9733 -10.832,0 -16.54133,-2.64 -21.57733,-4.9733 -4.84667,-2.24 -9.032,-4.1734 -17.97734,-4.1734 -2.37066,0 -4.292,-1.92 -4.292,-4.2933 0,-2.36 1.92134,-4.28 4.292,-4.28 10.83334,0 16.54134,2.64 21.57734,4.96 4.848,2.24 9.032,4.1733 17.97733,4.1733 8.94667,0 13.13333,-1.9333 17.97867,-4.1733 5.03733,-2.32 10.74666,-4.96 21.57866,-4.96 10.83067,0 16.54,2.64 21.576,4.96 4.84667,2.24 9.032,4.1733 17.97867,4.1733 8.948,0 13.13466,-1.9333 17.984,-4.1733 5.036,-2.32 10.74666,-4.96 21.57866,-4.96 10.83334,0 16.54267,2.64 21.58,4.96 4.848,2.24 9.03467,4.1733 17.98267,4.1733 2.37067,0 4.29067,1.92 4.29067,4.2934 0,2.3733 -1.92,4.2933 -4.29067,4.2933"
       style="fill:#451717;fill-opacity:1;fill-rule:nonzero;stroke:none;stroke-width:0.133333" />
    <path
       id="path76"
       d="m 530.40799,1326.6267 c -17.38534,0 -11.58267,-9.4533 -28.968,-9.4533 -17.38667,0 -17.38667,9.4533 -34.77467,9.4533 -17.38266,0 -17.38266,-9.4533 -34.768,-9.4533 -17.38133,0 -17.38133,9.4533 -34.768,9.4533 -17.38,0 -17.38,-9.4533 -34.764,-9.4533 l 17.16134,109.1867 h 135.40799 l 15.47334,-99.7334"
       style="fill:#451717;fill-opacity:1;fill-rule:nonzero;stroke:none;stroke-width:0.133333" />
  </g>
</svg>
