<?xml version="1.0" encoding="UTF-8" standalone="no"?>
<!-- Created with Inkscape (http://www.inkscape.org/) -->

<svg
   version="1.1"
   id="svg1"
   width="331.45972"
   height="376.90662"
   viewBox="0 0 331.45971 376.90661"
   xmlns="http://www.w3.org/2000/svg"
   xmlns:svg="http://www.w3.org/2000/svg">
  <defs
     id="defs1" />
  <g
     id="g1"
     transform="translate(-2094.9307,-1071.1467)">
    <path
       id="path29"
       d="m 2295.3999,1448.0534 h -146.84 c -2.1333,0 -3.9333,-1.5467 -4.2533,-3.6533 l -49.3333,-330.1067 c -0.1734,-1.24 0.1866,-2.4933 1,-3.44 0.8133,-0.9467 2,-1.4933 3.2533,-1.4933 h 245.5467 c 1.28,0 2.48,0.5733 3.3066,1.56 0.8134,0.9733 1.1467,2.2666 0.9067,3.5333 l -13.7333,73.36 c -0.3734,2.04 -2.1467,3.5067 -4.2134,3.5067 -11.3733,0 -17.3733,-2.6134 -22.6666,-4.9334 -4.96,-2.16 -9.6534,-4.2 -19.24,-4.2 -9.5734,0 -14.2667,2.04 -19.2267,4.2 -5.2933,2.32 -11.2933,4.9334 -22.6667,4.9334 -11.3733,0 -17.3733,-2.6134 -22.6666,-4.9334 -4.96,-2.16 -9.6534,-4.2 -19.2267,-4.2 -9.5867,0 -14.2667,2.04 -19.2267,4.2 -5.2933,2.32 -11.2933,4.9334 -22.6666,4.9334 -11.3734,0 -17.3734,-2.6134 -22.6667,-4.9334 -4.96,-2.16 -9.6533,-4.2 -19.2267,-4.2 -2.3733,0 -4.2933,-1.92 -4.2933,-4.2933 0,-2.3733 1.92,-4.2933 4.2933,-4.2933 11.3734,0 17.3734,2.6133 22.6667,4.92 4.96,2.1733 9.6533,4.2133 19.2267,4.2133 9.5733,0 14.2666,-2.04 19.2266,-4.2 5.2934,-2.32 11.2934,-4.9333 22.6667,-4.9333 11.3733,0 17.36,2.6133 22.6667,4.92 4.96,2.1733 9.6533,4.2133 19.2266,4.2133 9.5867,0 14.2667,-2.04 19.24,-4.2133 5.2934,-2.3067 11.2934,-4.92 22.6534,-4.92 11.3733,0 17.3733,2.6133 22.6666,4.92 4.32,1.8933 8.4134,3.68 15.6934,4.12 l 12.1066,-64.6934 h -235.4 l 48.0534,321.5334 h 139.4933 l 18.8667,-118.4 c 0.32,-2.0934 2.12,-3.6267 4.2266,-3.6267 22.4667,0 92.2934,-30.3067 101.5867,-88.16 3.88,-24.12 -0.4667,-41.5333 -12.56,-50.3467 -10.2933,-7.4933 -25.6667,-7.8933 -39.1867,-1.0266 -11.6133,5.9066 -18.5466,15.68 -18.5466,26.1333 0,2.3733 -1.92,4.2933 -4.2934,4.2933 -2.3733,0 -4.2933,-1.92 -4.2933,-4.2933 0,-13.76 8.6933,-26.3867 23.24,-33.7867 16.36,-8.32 35.2533,-7.64 48.1333,1.7467 10.3734,7.56 21.56,23.88 15.9867,58.64 -5.5733,34.64 -29.9733,57.96 -49.4533,71.4133 -20.76,14.3467 -43.3334,22.4667 -56.92,23.7867 l -18.8934,118.5867 c -0.32,2.08 -2.12,3.6133 -4.24,3.6133"
       style="fill:#451717;fill-opacity:1;fill-rule:nonzero;stroke:none;stroke-width:0.133333" />
    <path
       id="path30"
       d="m 2328.1333,1107.9201 c -10.88,0 -16.4134,-5.2 -21.2934,-9.8 -4.44,-4.1734 -7.9466,-7.48 -15.4133,-7.48 -8.68,0 -12.9067,1 -17.3733,2.0533 -4.76,1.12 -9.6667,2.2667 -19.3467,2.2667 -10.72,0 -16.2267,-4.56 -21.0933,-8.6 -4.4667,-3.7067 -7.9867,-6.6267 -15.6134,-6.6267 -7.6266,0 -11.1466,2.92 -15.6133,6.6267 -4.8667,4.04 -10.3733,8.6 -21.0933,8.6 -9.68,0 -14.6,-1.1467 -19.3467,-2.2667 -4.4667,-1.0533 -8.6933,-2.0533 -17.3733,-2.0533 -7.48,0 -10.9867,3.3066 -15.4134,7.48 -4.8933,4.6 -10.4266,9.8 -21.3066,9.8 -2.3734,0 -4.2934,-1.92 -4.2934,-4.28 0,-2.3734 1.92,-4.2934 4.2934,-4.2934 7.48,0 10.9866,-3.3066 15.4266,-7.48 4.88,-4.5866 10.4134,-9.8 21.2934,-9.8 9.68,0 14.5866,1.1467 19.3466,2.2667 4.4667,1.0533 8.6934,2.0533 17.3734,2.0533 7.6266,0 11.1466,-2.9333 15.6133,-6.6266 4.8667,-4.04 10.3733,-8.6134 21.0933,-8.6134 10.7334,0 16.24,4.5734 21.0934,8.6134 4.4666,3.6933 7.9866,6.6266 15.6133,6.6266 8.68,0 12.9067,-1 17.3733,-2.0533 4.7467,-1.12 9.6667,-2.2667 19.3467,-2.2667 10.88,0 16.4133,5.2134 21.2933,9.8 4.4267,4.1734 7.9334,7.48 15.4134,7.48 2.3733,0 4.2933,1.92 4.2933,4.2934 0,2.36 -1.92,4.28 -4.2933,4.28"
       style="fill:#451717;fill-opacity:1;fill-rule:nonzero;stroke:none;stroke-width:0.133333" />
  </g>
</svg>
